<svg width="900" height="900" viewBox="0 0 900 900" fill="none" xmlns="http://www.w3.org/2000/svg">
<g clip-path="url(#clip0_550_3755)">
<path fill-rule="evenodd" clip-rule="evenodd" d="M425.271 0.652L419.771 0.953L408.271 2.024L396.771 3.094L383.736 4.99L370.702 6.886L356.388 9.921L342.074 12.955L330.64 16.101L319.758 19.0958C319.511 19.1637 319.43 19.4724 319.611 19.653V19.653V19.653C319.866 19.908 320.228 20.0253 320.584 19.9684L326.802 18.975L333.588 17.891L339.18 17.185L344.771 16.48L362.771 16.584L370.072 16.6262C377.189 16.6673 384.286 17.3767 391.271 18.745V18.745L395.627 19.5983C399.716 20.3994 403.731 21.5385 407.632 23.004V23.004L409.657 23.7652C412.192 24.7182 414.529 26.1326 416.549 27.937V27.937L417.297 28.6054C418.765 29.9171 419.604 31.7924 419.604 33.761V33.761V33.761C419.604 35.7673 418.945 37.7181 417.728 39.3133L416.907 40.39V40.39C415.122 42.731 412.952 44.7519 410.491 46.3664L404.49 50.302L394.771 56.676L386.771 60.994L378.771 65.311L358.771 76.275L338.771 87.239L334.771 89.467L330.771 91.696L317.271 99.498L303.771 107.301L277.771 122.947L251.771 138.594L246.271 142.123L240.771 145.653L233.194 151.758L232.141 152.607C227.8 156.105 223.772 159.975 220.103 164.172V164.172L214.588 170.48L210.547 176.48V176.48C207.859 180.471 205.553 184.707 203.659 189.13L203.509 189.48L200.511 196.48L198.951 201.48V201.48C197.912 204.809 197.124 208.21 196.591 211.656L196.199 214.195V214.195C195.407 219.327 195.109 224.523 195.31 229.713L195.523 235.195L195.699 239.742C195.924 245.553 196.725 251.327 198.09 256.98V256.98L200.143 265.48L203.301 274.48L206.459 283.48L212.062 295.48L217.666 307.48L226.588 323.98L235.509 340.48L241.069 350.98L246.628 361.48L248.764 364.98L250.901 368.48L256.131 378.733L261.362 388.986L262.763 392.957L263.772 395.816C264.001 396.465 263.746 397.186 263.161 397.548V397.548V397.548C262.574 397.911 261.814 397.82 261.329 397.329L255.892 391.824L249.626 385.48L243.644 377.98L237.662 370.48L230.189 359.98L222.715 349.48L216.619 339.918L210.522 330.356L203.988 318.378L197.454 306.399L192.988 296.44L188.522 286.48L184.93 276.863L181.338 267.245L179.315 259.863L177.292 252.48L175.787 242.48V242.48C174.786 235.823 174.281 229.1 174.277 222.368L174.277 222.099L174.277 221.966C174.273 215.145 174.808 208.335 175.877 201.599V201.599L175.996 200.852C176.985 194.615 178.489 188.47 180.491 182.48V182.48L181.724 178.792C182.906 175.255 184.342 171.809 186.022 168.48V168.48L188.545 163.48L191.764 158.435L194.983 153.391L202.736 144.151V144.151C207.895 138.001 213.551 132.286 219.646 127.062L224.13 123.218L237.771 111.526L250.271 100.332L262.771 89.138L267.271 83.947L268.242 82.8272C270.59 80.1186 272.689 77.2037 274.513 74.118V74.118L275.983 71.6321C276.815 70.2235 277.253 68.6163 277.248 66.98V66.98L277.244 65.8024C277.241 64.9399 276.985 64.0974 276.506 63.38V63.38V63.38C276.024 62.6575 275.368 62.0671 274.599 61.6626L273.587 61.13V61.13C272.152 60.3747 270.555 59.98 268.933 59.98H264.295V59.98C259.569 59.98 254.855 60.4618 250.226 61.4179L249.567 61.554L241.947 63.128L229.859 67.399L217.771 71.67L201.179 79.918L197.896 81.5498C189.041 85.9516 180.601 91.1438 172.679 97.063V97.063L160.771 105.959L154.941 111.72V111.72C151.06 115.553 147.507 119.704 144.317 124.128L141.9 127.48L134.69 137.48L130.96 143.48V143.48C128.478 147.472 126.368 151.683 124.656 156.06L123.203 159.775L119.177 170.07L116.314 180.983V180.983C114.411 188.236 113.038 195.637 112.214 203.09V203.09L110.978 214.284L111.612 236.382L112.245 258.48L113.211 265.98L114.176 273.48L116.239 288.48L118.302 303.48L118.787 306.73L119.271 309.98L119.797 313.23L120.322 316.48L121.745 328.04L123.168 339.601L123.722 352.54L124.276 365.48L124.83 375.48L125.384 385.48L126.388 393.48L127.392 401.48L129.813 413.273L132.235 425.066L135.68 437.773L139.126 450.48L143.805 465.48L148.484 480.48L152.275 493.057L156.066 505.635L158.605 518.057L161.145 530.48L162.208 540.191L163.271 549.901L163.251 561.191L163.232 572.48L161.827 582.98L160.421 593.48L157.825 603.211L155.228 612.943L152.187 621.559L149.146 630.175L145.313 638.828L141.481 647.48L136.035 659.018L130.588 670.555L120.77 689.018L110.951 707.48L104.6 718.865L101.786 723.908C99.6514 727.735 100.075 732.477 102.853 735.865V735.865L107.458 741.48L116.608 751.73L125.347 761.52C125.609 761.813 125.982 761.98 126.375 761.98V761.98V761.98C126.752 761.98 127.094 761.761 127.251 761.418L130.547 754.23L134.101 746.48L152.734 707.087L171.366 667.694L177.931 652.587L184.496 637.48L188.982 625.98L193.467 614.48L196.781 603.98L200.095 593.48L201.653 586.98L203.211 580.48L204.97 570.98V570.98C206.14 564.66 206.732 558.246 206.737 551.819L206.75 536.98L206.764 521.172C206.768 515.393 206.163 509.631 204.956 503.98V503.98L203.142 495.48L200.149 483.98L197.157 472.48L183.835 432.98L170.513 393.48L163.922 371.98L157.332 350.48L153.793 337.53L150.255 324.581L148.216 313.925L147.553 310.46C146.639 305.682 146.277 300.815 146.474 295.954V295.954L146.719 289.931C146.75 289.154 147.26 288.478 147.998 288.234V288.234V288.234C148.746 287.987 149.57 288.199 150.105 288.777L151.716 290.515V290.515C153.371 292.301 154.826 294.262 156.056 296.364L161.892 306.341L169.577 319.48L175.571 329.48L181.564 339.48L196.81 362.48L212.055 385.48L223.778 401.98L235.5 418.48L246.707 435.48L257.914 452.48L262.703 460.394L267.491 468.309L273.258 478.894L279.024 489.48L283.669 500.17L288.314 510.86L291.872 520.67L295.429 530.48L298.29 542.48L301.151 554.48L304.235 572.355L307.319 590.23L308.27 594.474L309.221 598.717L311.847 607.098L312.228 608.313C313.722 613.082 315.637 617.708 317.948 622.139V622.139L318.979 624.115C320.603 627.226 322.575 630.143 324.857 632.81V632.81L325.224 633.238C327.237 635.591 329.807 637.402 332.7 638.506V638.506L333.633 638.862C335.88 639.72 338.354 639.778 340.639 639.024V639.024V639.024C342.952 638.261 345.018 636.893 346.625 635.063L347.099 634.523V634.523C349.041 632.311 350.658 629.833 351.901 627.165L352.521 625.834L355.014 620.48L357.228 613.98L359.442 607.48L361.948 598.48L364.454 589.48L367.862 573.98L371.27 558.48L372.7 547.48L374.13 536.48L375.199 526.98L376.269 517.48L377.244 493.48L377.888 477.642C378.109 472.216 378.899 466.827 380.246 461.566V461.566L381.035 458.484C381.856 455.279 383.122 452.203 384.795 449.348V449.348V449.348C386.456 446.515 388.73 444.088 391.449 442.247L391.544 442.183L392.137 441.782C394.552 440.148 397.141 438.787 399.857 437.725V437.725V437.725C402.575 436.663 405.388 435.865 408.259 435.341L409.857 435.05L415.771 433.972L417.771 433.584L419.771 433.195L426.771 432.529L433.771 431.863L441.271 430.917L443.556 430.628C447.025 430.19 450.445 429.427 453.771 428.349V428.349L454.913 427.979C457.468 427.151 459.869 425.909 462.021 424.303V424.303L463.005 423.569C464.431 422.505 465.271 420.83 465.271 419.051V419.051V419.051C465.271 417.185 464.896 415.339 464.169 413.621L463.844 412.852V412.852C462.899 410.619 461.591 408.559 459.974 406.753L457.204 403.662L451.991 397.845L431.384 379.162L410.777 360.48L396.75 346.48L382.723 332.48L374.182 322.48L365.641 312.48L361.095 306.48L356.548 300.48L351.31 292.48L346.071 284.48L340.804 273.48L338.384 268.427C336.49 264.471 334.962 260.349 333.82 256.114V256.114V256.114C332.68 251.888 332.091 247.532 332.068 243.155L332.057 241.114L332.036 237.112C332.019 234.039 332.424 230.977 333.238 228.013V228.013V228.013C334.055 225.039 335.112 222.137 336.401 219.335L336.549 219.013V219.013C337.936 215.995 339.547 213.086 341.368 210.309L341.584 209.98V209.98C343.546 206.989 345.823 204.216 348.376 201.711L351.764 198.385V198.385C356.572 193.666 361.824 189.421 367.447 185.71L367.882 185.423L376.771 179.557L392.771 171.377L408.771 163.198L420.271 158.485L431.771 153.772L434.771 152.484L437.771 151.195L453.271 145.465L468.771 139.735L481.271 135.296L493.771 130.858L502.771 127.805L511.771 124.751L523.771 120.335L535.771 115.918L547.771 109.975L549.88 108.931C556.459 105.673 562.716 101.801 568.567 97.366V97.366L569.101 96.9612C574.598 92.7952 579.717 88.1535 584.4 83.09V83.09L584.811 82.646C589.221 77.8761 593.249 72.7659 596.857 67.363V67.363L597.616 66.2269C600.719 61.5807 603.455 56.6992 605.798 51.627V51.627L606.505 50.0977C608.377 46.0458 609.889 41.8366 611.021 37.519V37.519L612.377 32.3485C612.59 31.5341 612.35 30.6678 611.747 30.08V30.08V30.08C611.105 29.4535 610.328 28.9813 609.477 28.6991L592.771 23.162L574.771 17.196L560.271 13.618L545.771 10.039L531.995 7.517L518.219 4.995L505.995 3.513L493.771 2.03L479.271 1.015L464.771 0L447.771 0.175L430.771 0.35L425.271 0.652ZM316.084 20.663L316.603 20.8707C317.084 21.0632 317.634 20.9504 318 20.584V20.584V20.584C318.215 20.3693 318.054 20.0027 317.751 20.0152L316.688 20.059L316.184 20.0798C315.858 20.0932 315.781 20.5419 316.084 20.663V20.663ZM624.809 38.73V38.73C624.357 40.5578 623.705 42.3301 622.864 44.0148L618.749 52.262L613.369 63.045L610.489 67.262L607.608 71.48L604.243 76.48V76.48C602.005 79.8057 599.453 82.9096 596.624 85.7491L587.825 94.579L583.216 99.2036C577.601 104.838 571.42 109.879 564.771 114.246V114.246L554.771 120.814L544.705 125.829L534.639 130.843L518.205 136.319L501.771 141.794L478.771 149.317L455.771 156.841L441.875 162.456L427.979 168.071L416.875 173.446L405.771 178.821L398.771 183.061L391.771 187.302L385.771 191.799L379.771 196.297L376.41 199.389V199.389C374.174 201.445 372.133 203.705 370.316 206.14L369.07 207.809L368.559 208.494C366.254 211.58 364.305 214.916 362.747 218.439V218.439V218.439C361.19 221.96 360.056 225.653 359.368 229.441L359.264 230.016L359.043 231.237C358.435 234.587 358.356 238.011 358.808 241.386V241.386V241.386C359.261 244.774 360.041 248.11 361.137 251.348L361.52 252.48L363.552 258.48L366.853 265.09L370.155 271.699L377.106 282.09L384.057 292.48L393.516 303.48L402.974 314.48L414.873 325.536L426.771 336.592L435.271 343.592L443.771 350.593L451.271 356.131L458.771 361.669L466.771 367.143L474.771 372.617L484.771 378.445L494.771 384.273L506.771 391.273L514.001 395.49C517.177 397.342 520.209 399.43 523.072 401.735V401.735L527.372 405.197L530.377 408.339V408.339C532.373 410.426 534.129 412.731 535.611 415.211L535.931 415.747V415.747C537.601 418.541 538.497 421.73 538.528 424.985L538.536 425.87L538.554 427.753C538.578 430.348 537.865 432.897 536.497 435.103V435.103V435.103C535.106 437.346 533.441 439.405 531.538 441.233L531.087 441.667V441.667C528.89 443.779 526.374 445.532 523.632 446.862L521.771 447.765L521.356 447.966C517.641 449.767 513.762 451.206 509.771 452.264V452.264L503.771 453.853L496.271 454.886L488.771 455.919L476.771 457.034L464.771 458.149L461.271 458.571L457.771 458.992L449.771 460.066L441.771 461.14L436.427 462.53V462.53C432.871 463.455 429.403 464.689 426.062 466.218L425.591 466.434L424.476 466.945C421.569 468.275 418.832 469.952 416.326 471.937V471.937V471.937C413.825 473.918 411.639 476.267 409.843 478.904L408.959 480.203L408.658 480.646C406.472 483.856 404.698 487.328 403.377 490.98V490.98L401.387 496.48L399.868 502.48L398.348 508.48L396.261 520.98L394.173 533.48L392.243 545.48L390.313 557.48L387.263 575.98L384.213 594.48L382.318 608.98L380.423 623.48L379.85 629.48L379.277 635.48L378.239 646.48L377.202 657.48L375.586 665.98L374.804 670.092C374.25 673.009 373.382 675.857 372.217 678.588V678.588V678.588C371.059 681.3 369.374 683.755 367.258 685.81L366.84 686.216L366.665 686.386C364.402 688.584 361.625 690.181 358.587 691.031V691.031V691.031C355.546 691.882 352.346 691.989 349.255 691.341L348.52 691.187V691.187C344.915 690.431 341.446 689.131 338.231 687.333L336.925 686.603V686.603C332.839 684.318 329.072 681.505 325.721 678.236L324.751 677.29L324.688 677.228C320.727 673.365 317.137 669.137 313.967 664.602V664.602L312.827 662.97C310.413 659.517 308.249 655.894 306.351 652.132V652.132L303.501 646.48L300.911 640.32L298.321 634.159L295.861 624.82L293.401 615.48L292.34 609.48L291.28 603.48L290.243 595.48L289.207 587.48L287.292 570.98L285.377 554.48L283.365 545.868L281.354 537.257L277.755 526.368L274.157 515.48L267.289 501.48L260.421 487.48L252.444 475.48L244.467 463.48L238.523 456.47L235.311 452.682C233.506 450.554 231.315 448.785 228.854 447.47V447.47L227.256 446.616C226.036 445.964 224.521 446.307 223.7 447.421V447.421V447.421C222.772 448.682 222.271 450.207 222.271 451.772V452.461V452.461C222.271 454.524 222.448 456.583 222.8 458.616L224.688 469.52L227.106 483.48L228.892 493.98V493.98C230.081 500.968 230.681 508.043 230.684 515.131L230.689 526.48L230.694 536.758C230.698 544.554 229.94 552.332 228.43 559.98V559.98L226.16 571.48L223.665 581.48L221.17 591.48L217.077 604.48L212.984 617.48L205.731 636.98L198.478 656.48L185.761 687.48L173.044 718.48L167.547 732.48L162.05 746.48L157.073 760.48L152.096 774.48L150.485 779.375V779.375C149.509 782.339 150.412 785.598 152.772 787.638L152.822 787.681L156.771 791.092L169.58 801.447L182.388 811.802L195.646 820.822L203.673 826.283C205.557 827.565 208.04 825.887 207.554 823.661V823.661V823.661C206.657 819.552 206.197 815.359 206.182 811.153L206.153 802.48L206.101 787.48L207.264 778.98L208.428 770.48L210.855 759L213.283 747.521L215.866 738L218.449 728.48L222.25 716.98L226.051 705.48L229.796 695.98L233.541 686.48L236.811 679.98L237.737 678.14C239.297 675.039 241.109 672.071 243.156 669.266V669.266L244.237 667.786C245.549 665.988 247.261 664.52 249.238 663.497V663.497V663.497C251.144 662.511 253.389 662.42 255.369 663.247L255.594 663.341V663.341C257.796 664.262 259.754 665.681 261.313 667.488L264.357 671.015L269.771 677.289L276.407 684.942L283.043 692.596L290.407 699.147L297.771 705.698L307.271 712.225L316.771 718.751L325.271 723.444L333.771 728.136L342.79 731.981L351.809 735.827L362.29 738.638V738.638C369.248 740.505 376.419 741.454 383.623 741.462L385.771 741.465L392.422 741.473C396.599 741.477 400.721 740.522 404.47 738.681V738.681L405.608 738.122C408.605 736.65 411.203 734.478 413.181 731.788V731.788V731.788C415.167 729.088 416.57 726.005 417.302 722.735L417.37 722.429V722.429C418.152 718.934 418.468 715.352 418.309 711.774L418 704.822L417.452 692.48L414.915 677.98L412.378 663.48L411.126 652.98L409.874 642.48L409.822 622.48L409.771 602.48L410.527 596.528L411.282 590.576L412.786 581.229L414.29 571.882L416.801 561.181L419.311 550.48L422.432 540.98L423.285 538.382C424.795 533.787 426.638 529.308 428.799 524.98V524.98V524.98C430.959 520.655 433.506 516.535 436.411 512.671L436.642 512.363L437.257 511.546C439.899 508.03 443.011 504.894 446.505 502.224V502.224V502.224C450.008 499.547 453.757 497.21 457.702 495.242L457.771 495.208V495.208C461.765 493.216 465.909 491.541 470.166 490.199L471.826 489.675L479.881 487.136L496.326 484.02L512.771 480.905L526.771 477.898L540.771 474.891L548.867 472.108L549.493 471.893C554.463 470.184 559.273 468.041 563.867 465.487V465.487V465.487C568.447 462.941 572.651 459.771 576.358 456.067L578.362 454.065L580.046 452.383C583.957 448.475 587.194 443.946 589.626 438.98V438.98L589.928 438.364C592.167 433.792 593.83 428.961 594.88 423.98V423.98V423.98C595.929 419.005 596.276 413.907 595.91 408.835L595.828 407.695L595.638 405.062C595.343 400.974 594.579 396.934 593.361 393.021V393.021V393.021C592.142 389.105 590.522 385.326 588.527 381.743L587.727 380.306L587.567 380.018C585.152 375.682 582.119 371.722 578.563 368.261V368.261V368.261C575.011 364.803 570.934 361.93 566.484 359.746L564.986 359.011V359.011C559.524 356.33 553.798 354.226 547.9 352.732L536.771 349.912L516.771 344.845L507.771 341.308L498.771 337.77L489.616 333.001L480.461 328.231L471.995 322.656L463.528 317.08L455.665 310.831L447.801 304.582L439.786 297.136L431.771 289.69L423.935 281.085L423.798 280.934C418.672 275.306 413.975 269.302 409.744 262.974V262.974L407.885 260.193C404.894 255.72 402.329 250.976 400.222 246.024V246.024L400.018 245.544C398.057 240.935 396.887 236.028 396.559 231.03V231.03L396.454 229.434C396.196 225.51 396.783 221.577 398.175 217.899V217.899V217.899C399.576 214.197 401.499 210.714 403.884 207.555L404.03 207.362L404.109 207.257C406.545 204.029 409.278 201.037 412.271 198.318V198.318V198.318C415.266 195.598 418.473 193.119 421.86 190.906L424.771 189.003L432.771 183.776L444.771 178.016L456.771 172.257L460.271 170.723L463.771 169.189L473.771 165.464L483.771 161.739L497.271 156.981L510.771 152.222L520.04 148.633L529.308 145.043L540.239 139.452L551.17 133.861L561.47 126.961L571.771 120.061L579.966 113.042V113.042C585.422 108.368 590.535 103.307 595.263 97.8981L595.787 97.299L603.414 88.575L609.43 79.581L615.446 70.587L619.243 63.033L623.04 55.48L626.159 46.64L628.922 38.8104C629.147 38.1721 629.071 37.4661 628.716 36.89V36.89V36.89C628.366 36.3243 627.748 35.98 627.083 35.98H626.82V35.98C626.038 35.98 625.356 36.5137 625.169 37.2732L624.809 38.73ZM703.959 83.869L701.156 87.48L692.265 97.578L690.561 99.5132C685.776 104.948 680.6 110.025 675.073 114.703V114.703L666.771 121.731L659.595 126.356L659.202 126.609C654.69 129.517 649.911 131.986 644.928 133.981V133.981L640.354 135.812C638.428 136.584 636.372 136.98 634.297 136.98V136.98V136.98C632.212 136.98 630.134 136.722 628.112 136.213L626.714 135.861L623.035 134.935C622.586 134.822 622.271 134.418 622.271 133.955V133.955V133.955C622.271 133.554 621.895 133.259 621.506 133.354L620.021 133.718L619.313 133.891C618.296 134.14 617.345 134.602 616.521 135.247V135.247L615.783 135.824C615.575 135.987 615.271 135.839 615.271 135.575V135.575V135.575C615.271 135.309 614.966 135.158 614.754 135.32L608.521 140.098L601.771 145.271L587.354 156.797L572.937 168.323L567.946 172.901L562.954 177.48L560.111 180.38L559.618 180.883C558.061 182.471 556.762 184.294 555.769 186.284V186.284L555.557 186.708C554.711 188.404 554.271 190.274 554.271 192.169V192.169V192.169C554.271 194.049 554.82 195.888 555.85 197.46L555.919 197.566V197.566C557 199.215 558.488 200.558 560.24 201.464L560.571 201.635V201.635C562.569 202.669 564.647 203.54 566.784 204.242L569.375 205.092V205.092C573.219 206.354 577.238 207.003 581.284 207.015L585.474 207.028L595.771 207.059L603.271 206.056L610.771 205.053L618.771 202.938L626.771 200.823L636.271 197.276L645.771 193.728L654.271 189.461L662.771 185.195L671.758 179.996L680.745 174.797L694.758 165.188L708.771 155.579L717.999 149.381L723.309 145.814C725.91 144.068 728.729 142.671 731.694 141.661V141.661L734.218 140.801C735.486 140.369 736.853 140.319 738.149 140.658V140.658V140.658C739.409 140.988 740.46 141.858 741.018 143.034L741.836 144.758V144.758C742.948 147.102 743.419 149.699 743.2 152.284L742.934 155.438V155.438C742.535 160.161 741.669 164.833 740.348 169.385L739.877 171.01L737.421 179.48L731.759 192.98L726.096 206.48L709.765 239.48L693.434 272.48L689.395 282.245L685.355 292.01L682.4 301.245L679.445 310.48L676.923 322.48L674.401 334.48L672.39 351.98L670.379 369.48L668.802 387.98L667.225 406.48L665.195 421.48L663.165 436.48L661.197 444.98L659.229 453.48L656.233 462.48V462.48C654.24 468.469 651.736 474.275 648.748 479.835L648.005 481.219L647.141 482.826C644.235 488.234 640.783 493.329 636.838 498.033V498.033V498.033C632.895 502.734 628.435 506.976 623.542 510.677L622.838 511.21L622.691 511.321C617.426 515.304 611.754 518.718 605.771 521.508V521.508L596.771 525.703L588.771 528.264L580.771 530.826L562.271 536.019L543.771 541.213L534.271 544.643L531.746 545.555C527.103 547.231 522.598 549.267 518.271 551.643V551.643L516.183 552.79C513.246 554.403 510.434 556.234 507.771 558.268V558.268L503.771 561.322L499.447 565.401L499.19 565.643C496.484 568.196 494.011 570.986 491.802 573.98V573.98V573.98C489.593 576.975 487.638 580.149 485.957 583.469L485.445 584.48L484.7 585.952C483.173 588.967 481.863 592.087 480.78 595.288V595.288L479.153 600.095L477.712 607.626V607.626C476.753 612.635 476.271 617.723 476.271 622.823V624.937V625.703C476.271 631.702 476.788 637.689 477.817 643.599V643.599V643.599C478.846 649.511 480.318 655.338 482.22 661.029L482.749 662.61V662.61C485.003 669.354 487.734 675.93 490.921 682.287L492.219 684.877L498.304 697.015L506.429 710.247L514.555 723.48L545.044 769.48L575.533 815.48L579.912 821.98L584.292 828.48L590.235 835.98L596.177 843.48L602.228 852.301L605.694 857.354C607.403 859.845 608.656 862.621 609.393 865.551V865.551L610.25 868.956C610.402 869.558 610.943 869.98 611.564 869.98V869.98V869.98C612.261 869.98 612.951 869.84 613.592 869.567L624.695 864.853L636.771 859.726L655.271 850.311L671.631 841.986C673.055 841.261 674.413 840.414 675.69 839.454V839.454V839.454C676.722 838.679 676.866 837.186 676.003 836.228L675.69 835.881V835.881C674.412 834.462 673.034 833.137 671.566 831.916L666.271 827.512L658.771 821.273L643.771 810.975L628.771 800.677L622.771 796.144L616.771 791.61L613.217 788.545L609.663 785.48L604.744 781.48L599.826 777.48L594.298 772.619L588.771 767.758L574.365 753.619L559.96 739.48L549.236 726.829L538.512 714.179L531.964 704.329L525.417 694.48L519.949 683.799L518.361 680.696C515.778 675.652 513.582 670.419 511.792 665.042V665.042L511.587 664.427C509.933 659.459 508.64 654.377 507.721 649.222V649.222L507.657 648.864C506.781 643.951 506.335 638.971 506.323 633.98V633.98L506.322 633.4C506.311 628.8 506.787 624.211 507.74 619.71V619.71V619.71C508.692 615.219 510.266 610.882 512.415 606.825L512.473 606.716V606.716C514.66 602.588 517.439 598.803 520.722 595.479L522.271 593.911V593.911C526.573 589.556 531.587 585.97 537.098 583.306L537.271 583.222L540.2 581.806C543.904 580.015 547.781 578.606 551.771 577.601V577.601L557.771 576.089L566.671 574.92L567.022 574.874C572.707 574.128 578.452 573.96 584.171 574.372V574.372L592.771 574.991L601.788 576.452L610.806 577.913L622.288 580.972L633.771 584.031L642.271 585.984L645.786 586.792C649.099 587.553 652.486 587.944 655.886 587.958V587.958L657.623 587.965C659.811 587.975 661.937 587.244 663.656 585.892V585.892L663.717 585.844C665.426 584.499 666.828 582.803 667.827 580.871V580.871V580.871C668.829 578.933 669.454 576.823 669.669 574.652L671.249 558.698L673.155 539.458L674.802 531.484L676.449 523.51L680.861 506.995L685.273 490.48L688.271 475.98L691.269 461.48L692.212 456.48L693.155 451.48L695.784 434.98L698.412 418.48L700.966 403.98L703.103 391.849C703.38 390.273 703.805 388.727 704.371 387.23V387.23L704.892 385.852C705.09 385.327 705.592 384.98 706.153 384.98V384.98V384.98C706.676 384.98 707.108 385.387 707.139 385.909L707.629 394.23L708.173 403.48L709.319 438.98L710.466 474.48L710.809 482.98L711.152 491.48L712.221 505.191L713.29 518.902L714.701 526.279L716.112 533.655L718.743 541.568L721.373 549.48L725.958 558.964L730.544 568.449L737.093 578.883L743.643 589.316L751.274 599.923L758.904 610.529L760.838 612.905L762.771 615.282L774.486 628.881L786.202 642.48L794.486 650.576L802.771 658.672L814.592 668.829L826.412 678.986L829.686 681.483L832.191 683.394C832.69 683.774 833.3 683.98 833.927 683.98V683.98V683.98C834.524 683.98 835.076 683.658 835.369 683.138L841.528 672.23L848.162 660.48L855.651 644.98L863.14 629.48L866.132 622.298L866.415 621.618C868.042 617.713 867.056 613.208 863.947 610.339V610.339L858.771 605.562L849.459 595.567L840.147 585.572L831.377 574.026L822.607 562.48L815.35 550.582L808.093 538.684L800.396 523.082L792.7 507.48L789.991 500.98L787.281 494.48L783.271 482.634L779.26 470.788L776.807 460.134L774.354 449.48L772.764 439.48L771.174 429.48L770.745 426.941L770.317 424.402L769.302 412.941L768.288 401.48L768.28 384.336L768.271 367.192L769.308 356.836L770.346 346.48L771.851 338.98L773.357 331.48L775.844 321.48L778.331 311.48L780.881 303.48L783.431 295.48L788.987 280.98L794.543 266.48L797.407 260.205L800.098 254.309C800.212 254.059 800.271 253.788 800.271 253.513V253.513V253.513C800.271 253.238 800.331 252.967 800.448 252.718L804.168 244.788L808.066 236.48L811.755 228.48L815.443 220.48L819.857 210.874L823.878 202.123C824.137 201.56 824.271 200.948 824.271 200.329V200.329V200.329C824.271 199.718 824.08 199.123 823.725 198.626L817.164 189.435L810.057 179.48L800.738 167.924L791.419 156.368L779.513 143.424L767.608 130.48L754.66 118.741L741.713 107.001L730.098 97.741L718.482 88.48L712.622 84.369L710.505 82.8832C708.409 81.4128 705.528 81.8467 703.959 83.869V83.869ZM121.742 142.66L110.048 155.341L101.195 166.182L92.341 177.023L87.742 183.469V183.469C84.7889 187.607 83.5388 192.721 84.2503 197.754L84.737 201.197L85.1337 204.003C85.9314 209.646 87.1625 215.219 88.816 220.673V220.673L90.6611 226.759C91.0806 228.142 91.8348 229.401 92.857 230.423V230.423L93.7217 231.288C94.165 231.731 94.7662 231.98 95.393 231.98V231.98V231.98C95.9865 231.98 96.522 231.623 96.7508 231.076L97.918 228.282V228.282C98.9458 225.822 99.7437 223.272 100.301 220.665L102.469 210.532L105.474 196.48L108.907 184.657L112.341 172.835L115.916 164.157L119.491 155.48L123.076 148.98L126.662 142.48L130.456 136.23L134.038 130.327C134.131 130.175 134.021 129.98 133.843 129.98V129.98V129.98C133.584 129.98 133.336 130.088 133.16 130.279L121.742 142.66ZM62.453 221.771V221.771C59.6363 226.527 58.2839 232.007 58.5649 237.527L58.73 240.771L59.325 252.48L60.317 264.98L61.308 277.48L62.348 287.48L63.387 297.48L63.832 300.98L64.277 304.48L65.8 317.369L67.323 330.258L69.815 346.369L72.308 362.48L74.76 379.48L77.212 396.48L78.19 402.48L79.167 408.48L81.237 425.98L83.306 443.48L84.757 456.48L86.208 469.48L87.781 483.48L89.354 497.48L91.312 510.094V510.094C92.6161 518.49 93.271 526.974 93.271 535.471V540.124V557.54L91.783 569.51L90.295 581.48L87.332 593.48L84.369 605.48L81.458 613.98L78.546 622.48L74.813 631.48L71.08 640.48L64.077 654.286L58.4998 665.284C57.5955 667.067 57.5155 669.156 58.281 671.003V671.003L58.8385 672.35C59.2637 673.377 59.9333 674.285 60.789 674.995V674.995V674.995C61.4648 675.556 62.4844 675.361 62.9054 674.59L69.086 663.278L76.079 650.48L79.086 643.98L82.094 637.48L85.265 629.98L88.437 622.48L91.257 613.98L94.077 605.48L95.66 599.874L97.243 594.267L99.233 584.171L101.223 574.076L102.384 562.278L103.545 550.48L102.917 532.48L102.288 514.48L100.833 502.98L99.378 491.48L97.293 474.98L95.207 458.48L92.776 441.48L90.346 424.48L89.76 420.48L89.174 416.48L85.745 395.48L82.316 374.48L80.741 364.48L79.166 354.48L77.222 341.48L75.278 328.48L74.741 323.98L74.204 319.48L72.799 308.48L71.394 297.48L70.794 290.48L70.194 283.48L69.107 275.98L68.019 268.48L67.395 241.48L66.9668 222.951C66.9104 220.513 63.6958 219.672 62.453 221.771V221.771ZM830.283 220.193L828.016 225.48L821.07 240.98L814.124 256.48L812.312 260.48L810.5 264.48L803.957 281.98L797.413 299.48L793.919 312.98L790.425 326.48L789.319 332.646L788.213 338.812L786.806 349.646V349.646C785.869 356.859 785.465 364.131 785.599 371.403L785.738 378.98L786.078 397.48L787.685 409.48L789.293 421.48L792.817 435.715L796.341 449.949L801.334 463.215L806.327 476.48L818.747 501.48L831.166 526.48L839.226 539.98L847.286 553.48L855.097 563.98L862.908 574.48L870.457 582.465L871.809 583.894C874.573 586.818 879.465 585.669 880.639 581.82V581.82L882.898 574.412C883.145 573.603 883.271 572.761 883.271 571.914V571.914V571.914C883.271 571.07 883.11 570.235 882.797 569.451L880.683 564.169V564.169C878.969 559.883 877.932 555.357 877.609 550.752L877.598 550.59L877.532 549.653C877.25 545.615 878.082 541.578 879.936 537.98V537.98V537.98C881.795 534.373 884.544 531.3 887.923 529.053L888.381 528.748V528.748C891.957 526.369 894.375 522.603 895.051 518.362L895.149 517.748L896.307 510.48L897.758 496.566L899.21 482.652L899.892 465.852L900.355 454.45C900.474 451.513 898.111 449.075 895.172 449.103V449.103L895.053 449.104C891.557 449.138 888.08 448.579 884.771 447.45V447.45L879.771 445.745L875.261 443.467V443.467C872.26 441.951 869.398 440.174 866.709 438.155L865.261 437.068L859.771 432.946L852.591 425.931L851.166 424.539C847.34 420.802 843.926 416.664 840.984 412.198V412.198L836.558 405.48L833.891 400.217V400.217C832.115 396.713 830.602 393.083 829.362 389.355L828.319 386.217L825.414 377.48L823.742 369.48V369.48C822.629 364.157 821.976 358.747 821.789 353.312L821.536 345.975L821.366 341.028C821.124 333.999 821.406 326.962 822.209 319.975V319.975L823.415 309.48L825.422 298.98L827.429 288.48L833.777 269.48L840.125 250.48L843.147 243.086V243.086C845.054 238.423 844.695 233.139 842.174 228.777L840.357 225.632L835.07 216.482C834.731 215.895 834.189 215.453 833.546 215.238V215.238V215.238C832.982 215.05 832.369 215.326 832.135 215.872L830.283 220.193ZM46.404 251.701V251.701C42.8812 258.847 41.1771 266.752 41.443 274.715L42.372 302.533L43.707 342.48L43.739 386.98L43.771 431.48L42.032 463.48L40.293 495.48L39.209 506.98L38.126 518.48L36.688 531.98L35.251 545.48L33.178 555.48L31.105 565.48L27.117 579.032V579.032C24.53 587.825 24.886 597.223 28.1309 605.795L28.599 607.032L34.068 621.48L35.728 625.338L37.1669 628.682C37.273 628.929 37.5941 628.99 37.784 628.801V628.801V628.801C38.0447 628.54 38.2499 628.228 38.3876 627.886L42.699 617.16L47.218 605.915L51.291 593.197L55.364 580.48L58.275 565.98L61.186 551.48L62.241 539.094L63.296 526.707L63.291 479.477L63.286 432.248L62.297 412.364L61.307 392.48L60.732 386.662L60.156 380.844L59.699 373.662L59.241 366.48L58.777 361.48L58.313 356.48L56.797 336.98L55.281 317.48L54.818 311.98L54.354 306.48L53.713 299.48L53.072 292.48L52.422 266.648L52.0768 252.948C51.998 249.825 47.7857 248.899 46.404 251.701V251.701ZM467.271 255.836V255.836C467.271 256.476 467.495 257.096 467.905 257.588L470.021 260.129V260.129C471.852 262.327 473.845 264.385 475.985 266.284L476.178 266.455L479.585 269.48L482.678 271.695L485.771 273.909L486.771 274.733V274.733C487.437 275.282 488.141 275.781 488.879 276.228L493.815 279.216L499.859 282.874L508.315 286.926V286.926C513.939 289.621 519.813 291.76 525.853 293.312L526.771 293.548V293.548C533.413 295.256 540.238 296.156 547.096 296.23L550.771 296.269L564.771 296.42L575.271 295.45L585.771 294.48L595.771 294.558L600.719 294.597C604.051 294.623 607.342 295.336 610.386 296.692V296.692L610.947 296.942C613.611 298.129 615.95 299.938 617.769 302.217V302.217V302.217C619.606 304.519 621.117 307.062 622.261 309.775L622.891 311.268V311.268C624.455 314.978 625.611 318.848 626.339 322.808L627.815 330.843L630.386 344.835L631.679 359.658L632.971 374.48L633.143 385.48L633.314 396.48L632.314 406.756L631.313 417.032L629.297 425.372L628.269 429.626C627.611 432.346 626.743 435.011 625.672 437.596V437.596L624.064 441.48L622.035 445.98V445.98C620.686 448.974 619.078 451.846 617.232 454.562L616.947 454.98L613.888 459.48L609.329 464.817V464.817C606.3 468.364 602.885 471.562 599.147 474.353L597.771 475.38L596.625 476.236C592.729 479.144 588.597 481.723 584.273 483.944V483.944L577.775 487.281L566.773 491.169L555.771 495.057L552.271 495.907L548.771 496.757L530.271 501.781L511.771 506.805L500.771 510.746L489.771 514.687L484.271 517.472L478.771 520.257L473.271 524.023L472.692 524.42C469.421 526.66 466.401 529.247 463.685 532.135V532.135L459.599 536.48L456.031 540.98V540.98C453.659 543.972 451.607 547.204 449.91 550.624L447.997 554.48L443.532 563.48L441.347 569.892L439.162 576.303L436.769 586.186L434.376 596.068L433.152 607.95V607.95C432.337 615.851 432.313 623.813 433.079 631.719L433.146 632.406L434.365 644.98L436.73 656.384L439.095 667.788L446.152 691.134L453.209 714.48L455.233 722.98L455.404 723.698C456.635 728.868 457.261 734.165 457.269 739.48V739.48L457.273 742.264C457.278 745.715 456.687 749.142 455.526 752.392V752.392V752.392C454.369 755.628 452.532 758.579 450.138 761.045L449.751 761.443V761.443C447.101 764.172 443.906 766.314 440.374 767.728L439.166 768.211V768.211C434.805 769.957 430.249 771.168 425.598 771.818L424.186 772.015V772.015C418.589 772.797 412.93 773.045 407.285 772.757L402.771 772.526L389.771 771.863L375.771 770.407L361.771 768.952L348.771 767.498L335.771 766.044L325.07 766.012L319.786 765.996C316.185 765.985 312.593 766.357 309.07 767.104V767.104L308.702 767.182C305.428 767.877 302.258 768.992 299.271 770.5V770.5V770.5C296.291 772.005 293.574 773.983 291.228 776.358L290.562 777.032L290.393 777.203C287.717 779.911 285.5 783.036 283.827 786.455V786.455V786.455C282.153 789.878 281.003 793.534 280.418 797.299L280.096 799.37V799.37C279.297 804.508 279.269 809.736 280.013 814.882L280.102 815.499L280.235 816.416C280.951 821.372 282.267 826.222 284.155 830.859V830.859V830.859C286.043 835.498 288.466 839.9 291.375 843.977L291.567 844.246V844.246C294.608 848.507 298.04 852.475 301.821 856.096L308.134 862.145L320.131 873.638L327.085 879.328V879.328C331.659 883.07 337.036 885.704 342.796 887.024L346.905 887.966L359.771 890.916L374.271 893.424L388.771 895.933L403.271 897.486L417.771 899.04L441.771 899.583L465.771 900.127L473.037 899.304L476.574 898.903C478.118 898.728 478.806 896.87 477.748 895.732V895.732L475.194 892.985L470.196 886.38L469.131 884.973C466.514 881.516 464.214 877.828 462.259 873.957V873.957V873.957C460.306 870.086 458.73 866.035 457.555 861.862L457.259 860.809V860.809C455.888 855.935 455.008 850.936 454.634 845.887L454.589 845.283L454.349 842.049C454.105 838.764 454.421 835.462 455.283 832.283V832.283V832.283C456.134 829.142 457.837 826.297 460.203 824.063L465.055 819.48L473.526 811.48L480.24 804.954L481.414 803.813C485.079 800.251 488.083 796.066 490.286 791.454V791.454V791.454C492.484 786.852 493.734 781.854 493.962 776.759L494.065 774.455L494.1 773.668C494.374 767.541 493.763 761.407 492.286 755.455V755.455L490.059 746.48L485.268 734.48L480.477 722.48L477.475 715.98L474.473 709.48L469.333 698.173L464.193 686.865L459.782 675.01L455.371 663.155L453.818 657.16L452.264 651.165L450.606 642.823V642.823C449.503 637.274 448.946 631.631 448.945 625.974L448.944 619.48L448.943 612.663C448.942 607.223 449.518 601.798 450.661 596.48V596.48L452.381 588.48L455.39 579.48L455.695 578.567C457.495 573.185 459.74 567.963 462.408 562.954V562.954L462.522 562.74C465.114 557.876 468.16 553.269 471.62 548.98V548.98V548.98C475.079 544.693 479.031 540.728 483.297 537.242V537.242V537.242C487.599 533.727 492.289 530.717 497.277 528.27L501.771 526.066V526.066C509.759 522.148 518.039 518.856 526.537 516.221L528.771 515.528L543.771 510.876L562.271 504.904L570.663 502.195C577.392 500.024 583.947 497.345 590.271 494.183V494.183L599.771 489.434L603.495 486.883L607.218 484.331L612.278 479.974V479.974C615.641 477.077 618.689 473.834 621.372 470.298L622.698 468.549L624.26 466.49C626.79 463.154 629.079 459.642 631.109 455.98V455.98V455.98C633.138 452.321 634.822 448.482 636.139 444.511L637.144 441.48L640.128 432.48L641.636 424.98L643.145 417.48L644.349 407.48L645.553 397.48L645.84 353.98L646.128 310.48L647.191 301.48L648.255 292.48L648.261 282.98L648.265 277.393C648.267 274.82 647.669 272.282 646.519 269.98V269.98V269.98C645.384 267.708 643.543 265.867 641.271 264.732V264.732V264.732C638.969 263.582 636.431 262.983 633.858 262.982L633.07 262.982V262.982C629.944 262.981 626.825 263.288 623.759 263.899L623.07 264.036L617.771 265.093L598.271 269.957L578.771 274.821L571.271 276.145V276.145C566.281 277.026 561.223 277.466 556.155 277.461L545.271 277.449L535.552 277.439C529.721 277.432 523.915 276.689 518.271 275.226V275.226L509.771 273.023L502.223 270.104L494.674 267.184L483.223 261.665L473.881 257.164C472.477 256.487 471.018 255.929 469.521 255.496V255.496L468.223 255.12C467.747 254.983 467.271 255.34 467.271 255.836V255.836ZM32.374 282.704L31.0025 286.065C28.9994 290.972 27.8455 296.185 27.59 301.48V301.48L27.204 309.48L26.224 328.48L25.244 347.48L23.697 358.98L22.15 370.48L21.172 374.23L20.4368 377.049C20.2938 377.597 19.7986 377.98 19.232 377.98V377.98H18.5943C18.3896 377.98 18.1958 377.888 18.066 377.73V377.73V377.73C17.9332 377.568 17.8585 377.366 17.8538 377.157L17.316 352.98L17.0688 341.867C17.0226 339.789 14.0608 339.463 13.563 341.48V341.48L10.356 354.48L7.827 368.22L5.299 381.961L3.845 393.72L2.39 405.48L1.195 422.98L0 440.48L0.622 461.98L1.244 483.48L3.218 500.48L5.193 517.48L6.774 526.48L8.356 535.48L11.293 548.876L14.1214 561.781C14.1916 562.102 14.3526 562.395 14.585 562.627V562.627V562.627C14.7484 562.79 15.0266 562.725 15.1006 562.506L17.556 555.231L20.171 547.48L22.297 537.98L24.423 528.48L25.35 522.98L26.278 517.48L27.709 507.48L29.139 497.48L29.708 492.48L30.277 487.48L31.782 470.98L33.287 454.48L34.271 444.98L35.255 435.48L36.211 419.98L37.167 404.48L37.67 381.48L38.173 358.48L37.472 315.204L36.9595 283.565C36.9175 280.974 33.3529 280.305 32.374 282.704V282.704ZM871.851 302.773V302.773C870.686 305.241 869.335 307.616 867.81 309.879L863.697 315.98L862.67 317.504C859.09 322.813 855.085 327.821 850.694 332.48V332.48L847.215 336.171C845.144 338.368 843.369 340.825 841.934 343.48V343.48V343.48C840.514 346.105 839.771 349.043 839.771 352.027V358.98V363.141C839.771 368.005 840.515 372.841 841.976 377.48V377.48V377.48C843.441 382.13 845.461 386.593 847.985 390.764V390.764V390.764C850.511 394.939 853.527 398.798 856.968 402.258L857.779 403.074L858.68 403.98C862.051 407.369 865.96 410.177 870.248 412.289V412.289V412.289C874.509 414.388 879.195 415.48 883.945 415.48H885.248H891.104C892.874 415.48 894.635 415.237 896.338 414.757V414.757V414.757C897.82 414.339 898.785 412.914 898.622 411.383L897.494 400.757L896.138 387.988C896.103 387.659 895.959 387.351 895.728 387.114V387.114V387.114C895.511 386.891 895.185 386.814 894.892 386.917L892.173 387.864V387.864C890.055 388.603 887.827 388.98 885.584 388.98H885.09H884.712C882.398 388.98 880.108 388.521 877.973 387.629V387.629V387.629C875.846 386.74 873.949 385.377 872.428 383.645L871.56 382.656L870.967 381.981C869.264 380.042 868.021 377.744 867.331 375.257V375.257V375.257C866.635 372.751 866.281 370.161 866.278 367.56L866.277 366.779V366.779C866.273 363.654 866.595 360.536 867.239 357.478L867.386 356.779L868.501 351.48L874.553 334.664L877.404 326.743C879.48 320.975 879.593 314.683 877.727 308.843V308.843L875.072 300.536C874.928 300.085 874.628 299.7 874.225 299.451V299.451V299.451C873.892 299.246 873.455 299.375 873.288 299.729L871.851 302.773ZM757.791 643.916V643.916C757.41 645.116 757.362 646.397 757.652 647.622L758.124 649.615L759.039 653.48L761.655 662.342L763.06 667.102C763.863 669.823 764.271 672.644 764.271 675.481V675.481V676.717C764.271 678.684 763.594 680.592 762.355 682.119V682.119V682.119C761.145 683.61 759.319 684.467 757.399 684.444L752.605 684.386V684.386C747.424 684.323 742.295 683.338 737.46 681.476L734.271 680.248L723.771 676.204L711.451 671.088L699.13 665.971L691.512 663.975L686.399 662.636C684.736 662.2 683.024 661.98 681.305 661.98V661.98V661.98C679.62 661.98 677.976 662.499 676.596 663.466L676.494 663.537L675.737 664.067C674.818 664.71 674.271 665.761 674.271 666.882V666.882V666.882C674.271 668.048 674.614 669.189 675.257 670.161L678.177 674.575V674.575C680.774 678.502 683.748 682.167 687.055 685.519L688.991 687.48L695.899 694.48L704.335 702.506L712.771 710.532L722.768 719.506L732.766 728.48L744.725 739.98L756.685 751.48L763.754 758.822V758.822C767.577 762.793 773.964 762.696 777.665 758.61L782.103 753.71L793.382 741.256L802.624 729.691L811.865 718.126L819.228 707.406L825.488 698.293C826.102 697.398 825.894 696.177 825.018 695.537V695.537L823.444 694.386L811.688 684.433L799.931 674.48L784.351 661.086L771.897 650.38C769.816 648.59 767.601 646.964 765.271 645.513V645.513L763.308 644.291C762.286 643.655 761.202 643.124 760.072 642.708V642.708V642.708C759.147 642.367 758.124 642.868 757.825 643.808L757.791 643.916Z" fill="black"/>
</g>
<defs>
<clipPath id="clip0_550_3755">
<rect width="900" height="900" fill="white"/>
</clipPath>
</defs>
</svg>
