<svg width="40" height="40" viewBox="0 0 40 40" fill="none" xmlns="http://www.w3.org/2000/svg">
  <path
    d="M5 11.3462V28.6552H8.69807V11.3462H5ZM14.9621 11.3462L7.64148 19.5556L15.2389 28.6552H19.6162L11.9433 19.4567L19.2388 11.3462H14.9621Z"
    fill="#4338CA"/>
  <path
    d="M23.6086 22.8443L21.0426 24.6247C21.4284 25.4324 21.965 26.1825 22.6527 26.8748C23.3403 27.5672 24.1453 28.1194 25.0677 28.5315C26.0069 28.9272 27.0132 29.125 28.0866 29.125C28.8916 29.125 29.6547 29.0014 30.3758 28.7541C31.1138 28.5233 31.7762 28.1854 32.3632 27.7403C32.9502 27.2787 33.4114 26.7182 33.7469 26.0588C34.0823 25.3994 34.25 24.6494 34.25 23.8087C34.25 23.0668 34.1242 22.4157 33.8726 21.8552C33.6378 21.2783 33.3024 20.7837 32.8664 20.3716C32.4471 19.943 31.9691 19.5803 31.4324 19.2836C30.9125 18.9869 30.3674 18.7396 29.7972 18.5418C28.9083 18.2451 28.1704 17.9566 27.5834 17.6763C26.9964 17.3796 26.5604 17.0746 26.2753 16.7614C25.9901 16.4317 25.8476 16.0526 25.8476 15.624C25.8476 15.1954 26.0237 14.8245 26.3759 14.5113C26.7281 14.1816 27.2564 14.0167 27.9608 14.0167C28.4974 14.0167 28.9754 14.1239 29.3947 14.3382C29.814 14.536 30.183 14.808 30.5016 15.1542C30.837 15.4839 31.1222 15.8548 31.357 16.2669L34.1745 14.7338C33.8726 14.1239 33.445 13.5387 32.8915 12.9782C32.3548 12.4012 31.6756 11.9314 30.8538 11.5687C30.0488 11.1896 29.0844 11 27.9608 11C26.8706 11 25.8811 11.1978 24.9923 11.5935C24.1201 11.9726 23.4241 12.5248 22.9042 13.2502C22.4011 13.959 22.1495 14.808 22.1495 15.7971C22.1495 16.6213 22.3088 17.3302 22.6275 17.9236C22.9462 18.5006 23.3487 18.9951 23.835 19.4072C24.3214 19.8029 24.8329 20.1326 25.3696 20.3963C25.9231 20.6436 26.4094 20.8414 26.8287 20.9898C27.617 21.2865 28.2794 21.5667 28.8161 21.8305C29.3696 22.0778 29.7805 22.3662 30.0488 22.6959C30.3339 23.0256 30.4765 23.4625 30.4765 24.0065C30.4765 24.6329 30.25 25.1274 29.7972 25.4901C29.3444 25.8528 28.7574 26.0341 28.0362 26.0341C27.4157 26.0341 26.8371 25.9022 26.3004 25.6385C25.7637 25.3747 25.269 25.0038 24.8162 24.5258C24.3801 24.0477 23.9776 23.4872 23.6086 22.8443Z"
    fill="#4338CA"/>
</svg>
