<svg width="124" height="40" viewBox="0 0 124 40" fill="none" xmlns="http://www.w3.org/2000/svg">
<g clip-path="url(#clip0_333_139)">
<path d="M28.1522 32.496C27.7521 32.496 27.3201 32.392 26.8561 32.184C26.4081 31.992 26.0322 31.696 25.7281 31.296C25.4401 30.912 25.3121 30.44 25.3441 29.88C25.3601 29.544 25.3921 29.208 25.4401 28.872C25.5041 28.552 25.6321 28.16 25.8242 27.696C26.0322 27.232 26.3521 26.632 26.7841 25.896C27.2321 25.144 27.8482 24.192 28.6322 23.04C29.4321 21.888 30.4481 20.448 31.6801 18.72C32.2722 17.904 32.6882 17.232 32.9282 16.704C33.1681 16.176 33.2882 15.76 33.2882 15.456C33.2882 15.2 33.2161 15.016 33.0721 14.904C32.9281 14.792 32.7442 14.736 32.5201 14.736C32.2001 14.736 31.8161 14.832 31.3681 15.024C30.9361 15.216 30.5202 15.464 30.1202 15.768C29.3682 16.328 28.6001 16.968 27.8161 17.688C27.0321 18.392 26.2721 19.12 25.5361 19.872C24.8001 20.624 24.1121 21.352 23.4721 22.056C22.9441 22.904 22.4481 23.68 21.9841 24.384C21.5201 25.072 21.1841 25.568 20.9761 25.872C20.9121 25.984 20.8082 26.064 20.6642 26.112C20.5361 26.16 20.4081 26.184 20.2801 26.184C20.0561 26.184 19.8561 26.128 19.6801 26.016C19.5041 25.888 19.4641 25.736 19.5602 25.56C19.5602 25.56 19.6561 25.392 19.8481 25.056C20.0401 24.72 20.2881 24.272 20.5921 23.712C20.9121 23.152 21.2481 22.536 21.6001 21.864C21.9681 21.192 22.3202 20.528 22.6562 19.872C22.9922 19.2 23.2801 18.584 23.5201 18.024C23.7761 17.464 23.9441 17.024 24.0241 16.704C24.1201 16.288 24.1681 15.904 24.1681 15.552C24.1681 15.2 24.1042 14.92 23.9762 14.712C23.8482 14.488 23.6241 14.376 23.3041 14.376C23.0961 14.376 22.8322 14.44 22.5121 14.568C22.1922 14.696 21.8161 14.896 21.3841 15.168C20.6481 15.648 19.8161 16.28 18.8881 17.064C17.9761 17.832 17.0241 18.696 16.0322 19.656C15.0562 20.6 14.0801 21.576 13.1041 22.584C12.1441 23.576 11.2481 24.544 10.4161 25.488C10.3681 25.536 10.3121 25.56 10.2481 25.56C9.64015 26.344 9.18415 26.856 8.88015 27.096C8.59215 27.336 8.44815 27.384 8.44815 27.24C8.44815 26.92 8.88815 26.208 9.76815 25.104C10.4561 24.256 11.1921 23.36 11.9761 22.416C12.7761 21.456 13.5201 20.504 14.2081 19.56C14.9121 18.616 15.4721 17.736 15.8882 16.92C16.3041 16.104 16.5121 15.416 16.5121 14.856C16.5121 14.104 16.2001 13.584 15.5761 13.296C14.9681 13.008 14.1921 12.864 13.2481 12.864C12.4961 12.864 11.6881 12.936 10.8241 13.08C9.97615 13.208 9.12815 13.376 8.28015 13.584C7.44815 13.776 6.68015 13.984 5.97615 14.208C5.27215 14.416 4.70415 14.592 4.27215 14.736C3.56815 14.976 2.92015 15.232 2.32815 15.504C1.73615 15.776 1.26415 16.056 0.912148 16.344C0.576148 16.616 0.408148 16.896 0.408148 17.184C0.408148 17.456 0.592148 17.72 0.960148 17.976C0.992148 17.992 1.00815 18.016 1.00815 18.048C1.00815 18.08 0.968148 18.096 0.888148 18.096C0.808148 18.096 0.728148 18.072 0.648148 18.024C0.184148 17.704 -0.0478516 17.24 -0.0478516 16.632C-0.0478516 16.184 0.104148 15.712 0.408148 15.216C0.712148 14.72 1.18415 14.296 1.82415 13.944C2.64015 13.48 3.55215 13.064 4.56015 12.696C5.56815 12.312 6.60815 11.992 7.68015 11.736C8.75215 11.464 9.80815 11.264 10.8481 11.136C11.9041 10.992 12.8801 10.92 13.7761 10.92C14.9601 10.92 15.8881 11.04 16.5602 11.28C17.2481 11.52 17.7361 11.848 18.0241 12.264C18.3121 12.68 18.4562 13.144 18.4562 13.656C18.4562 14.344 18.2481 15.072 17.8321 15.84C17.4321 16.608 16.9841 17.296 16.4881 17.904C16.0401 18.448 15.4641 19.128 14.7601 19.944C14.0721 20.76 13.3921 21.584 12.7201 22.416C13.6961 21.392 14.6881 20.392 15.6961 19.416C16.7041 18.44 17.6801 17.552 18.6241 16.752C19.5681 15.952 20.4162 15.304 21.1681 14.808C21.9841 14.28 22.6961 13.904 23.3041 13.68C23.9281 13.44 24.4561 13.32 24.8881 13.32C25.4961 13.32 25.9282 13.504 26.1842 13.872C26.4562 14.24 26.5921 14.696 26.5921 15.24C26.5921 15.816 26.4562 16.44 26.1842 17.112C26.0082 17.544 25.7761 18.04 25.4881 18.6C25.2001 19.144 24.8801 19.712 24.5282 20.304C25.3601 19.44 26.2401 18.576 27.1681 17.712C28.1122 16.848 29.0242 16.088 29.9042 15.432C30.6721 14.872 31.4802 14.408 32.3282 14.04C33.1762 13.672 33.8961 13.488 34.4881 13.488C34.8401 13.488 35.1202 13.568 35.3282 13.728C35.5361 13.872 35.6401 14.112 35.6401 14.448C35.6401 14.736 35.5441 15.104 35.3521 15.552C35.1602 16 34.8562 16.536 34.4402 17.16C32.8082 19.576 31.4802 21.656 30.4562 23.4C29.4482 25.128 28.7041 26.568 28.2241 27.72C27.7441 28.872 27.4721 29.792 27.4081 30.48C27.3921 30.56 27.3841 30.64 27.3841 30.72C27.3841 30.8 27.3841 30.88 27.3841 30.96C27.3841 31.408 27.4562 31.72 27.6002 31.896C27.7602 32.088 27.9361 32.184 28.1281 32.184C28.3681 32.184 28.5921 32.096 28.8001 31.92C28.8642 31.888 28.9042 31.872 28.9201 31.872C29.0001 31.872 29.0641 31.912 29.1122 31.992C29.1602 32.072 29.1441 32.152 29.0641 32.232C28.8401 32.408 28.5361 32.496 28.1522 32.496Z" fill="#4338CA"/>
<path d="M34.2238 27.12C33.5838 27.12 33.1358 26.968 32.8798 26.664C32.6238 26.344 32.4958 25.976 32.4958 25.56C32.4958 25.16 32.5678 24.736 32.7118 24.288C32.8718 23.84 33.0478 23.416 33.2398 23.016C33.0318 23.24 32.8318 23.448 32.6398 23.64C32.4478 23.816 32.2878 23.96 32.1598 24.072C32.0958 24.12 32.0318 24.144 31.9678 24.144C31.8878 24.144 31.8478 24.104 31.8478 24.024C31.8478 23.944 31.8958 23.872 31.9918 23.808C32.3278 23.52 32.7198 23.128 33.1678 22.632C33.6158 22.136 34.0318 21.632 34.4158 21.12C34.7358 20.704 35.1198 20.184 35.5678 19.56C36.0158 18.936 36.4718 18.28 36.9358 17.592C37.3998 16.888 37.7998 16.248 38.1358 15.672C38.1838 15.576 38.2318 15.456 38.2798 15.312C38.3438 15.168 38.3758 15.04 38.3758 14.928C38.3758 14.768 38.3118 14.688 38.1838 14.688C38.1518 14.688 38.0558 14.72 37.8958 14.784C37.7518 14.848 37.6078 14.912 37.4638 14.976C37.3198 15.04 37.2318 15.072 37.1998 15.072C37.0718 15.072 37.0798 15 37.2238 14.856C37.4798 14.664 37.7998 14.48 38.1838 14.304C38.5838 14.112 38.9918 13.952 39.4078 13.824C39.8238 13.696 40.1758 13.632 40.4638 13.632C41.1358 13.632 41.4718 13.848 41.4718 14.28C41.4718 14.504 41.3678 14.8 41.1598 15.168C40.9838 15.456 40.7278 15.8 40.3918 16.2C40.0558 16.584 39.6798 17 39.2638 17.448C38.8638 17.88 38.4718 18.312 38.0878 18.744C37.7038 19.16 37.3838 19.528 37.1278 19.848C37.0638 19.928 36.9038 20.136 36.6478 20.472C36.4078 20.808 36.1278 21.216 35.8078 21.696C35.5038 22.16 35.1918 22.656 34.8718 23.184C34.5678 23.696 34.3118 24.192 34.1038 24.672C33.9118 25.136 33.8158 25.528 33.8158 25.848C33.8158 26.28 34.0238 26.496 34.4398 26.496C34.7118 26.496 35.0558 26.416 35.4718 26.256C35.8718 26.112 36.2878 25.896 36.7198 25.608C37.1678 25.304 37.5998 24.984 38.0158 24.648C38.4478 24.312 38.8238 23.992 39.1438 23.688C39.4798 23.384 39.7278 23.152 39.8878 22.992C39.9838 22.896 40.0638 22.848 40.1278 22.848C40.1918 22.848 40.2238 22.888 40.2238 22.968C40.2238 23.048 40.1838 23.128 40.1038 23.208C39.8478 23.48 39.4958 23.832 39.0478 24.264C38.6158 24.696 38.1278 25.136 37.5838 25.584C37.0558 26.016 36.5038 26.384 35.9278 26.688C35.3518 26.976 34.7838 27.12 34.2238 27.12Z" fill="#4338CA"/>
<path d="M44.4225 19.656C44.1985 19.656 44.0305 19.584 43.9185 19.44C43.8065 19.296 43.7505 19.144 43.7505 18.984C43.7505 18.664 43.9025 18.352 44.2065 18.048C44.5105 17.728 44.8305 17.568 45.1665 17.568C45.3905 17.568 45.5585 17.64 45.6705 17.784C45.7825 17.928 45.8385 18.08 45.8385 18.24C45.8385 18.576 45.6865 18.896 45.3825 19.2C45.0945 19.504 44.7745 19.656 44.4225 19.656ZM40.7505 27.024C40.0945 27.024 39.6465 26.888 39.4065 26.616C39.1825 26.328 39.0705 26.008 39.0705 25.656C39.0705 25.368 39.1185 25.096 39.2145 24.84C39.3105 24.568 39.3905 24.376 39.4545 24.264C39.5505 24.104 39.6785 23.92 39.8385 23.712C40.0145 23.504 40.2065 23.28 40.4145 23.04C40.0945 23.312 39.7905 23.576 39.5025 23.832C39.2305 24.088 39.0065 24.28 38.8305 24.408C38.7825 24.456 38.7345 24.48 38.6865 24.48C38.6225 24.48 38.5905 24.44 38.5905 24.36C38.5905 24.232 38.6785 24.104 38.8545 23.976C39.2705 23.624 39.6705 23.24 40.0545 22.824C40.4545 22.408 40.8305 22.024 41.1825 21.672C41.5345 21.304 41.8465 21.048 42.1185 20.904C42.4065 20.744 42.6385 20.64 42.8145 20.592C42.9905 20.544 43.1345 20.52 43.2465 20.52C43.4225 20.52 43.5505 20.552 43.6305 20.616C43.7105 20.664 43.7265 20.72 43.6785 20.784C43.4065 21.056 43.1345 21.408 42.8625 21.84C42.6065 22.256 42.3665 22.696 42.1425 23.16C41.9185 23.624 41.7345 24.064 41.5905 24.48C41.4625 24.896 41.3985 25.248 41.3985 25.536C41.3985 25.936 41.5585 26.136 41.8785 26.136C42.1825 26.136 42.5745 26 43.0545 25.728C43.5505 25.44 44.0625 25.08 44.5905 24.648C45.1345 24.216 45.6385 23.792 46.1025 23.376C46.1665 23.312 46.2225 23.28 46.2705 23.28C46.3505 23.28 46.3905 23.32 46.3905 23.4C46.4065 23.48 46.3905 23.536 46.3425 23.568C45.8145 24.064 45.2145 24.584 44.5425 25.128C43.8865 25.656 43.2225 26.104 42.5505 26.472C41.8945 26.84 41.2945 27.024 40.7505 27.024Z" fill="#4338CA"/>
<path d="M47.9838 27.24C47.2958 27.24 46.7118 27.072 46.2318 26.736C45.7678 26.384 45.5358 25.88 45.5358 25.224C45.5358 24.52 45.7038 23.864 46.0398 23.256C46.3918 22.648 46.8478 22.12 47.4078 21.672C47.9678 21.208 48.5758 20.848 49.2318 20.592C49.9038 20.336 50.5678 20.208 51.2238 20.208C51.8798 20.208 52.3598 20.328 52.6638 20.568C52.9838 20.808 53.1438 21.096 53.1438 21.432C53.1438 21.656 53.0798 21.88 52.9518 22.104C52.8238 22.312 52.6478 22.416 52.4238 22.416C52.2798 22.416 52.2078 22.36 52.2078 22.248C52.2078 22.168 52.2318 22.096 52.2798 22.032C52.4718 21.696 52.5678 21.4 52.5678 21.144C52.5678 20.824 52.3998 20.664 52.0638 20.664C51.7918 20.664 51.4398 20.768 51.0078 20.976C50.6558 21.136 50.2798 21.384 49.8798 21.72C49.4958 22.04 49.1358 22.416 48.7998 22.848C48.4638 23.264 48.1838 23.696 47.9598 24.144C47.7518 24.576 47.6478 24.984 47.6478 25.368C47.6478 25.736 47.7518 26.04 47.9598 26.28C48.1678 26.52 48.4798 26.64 48.8958 26.64C49.1678 26.64 49.4878 26.576 49.8558 26.448C50.2398 26.32 50.6638 26.112 51.1278 25.824C51.5118 25.584 51.9118 25.296 52.3278 24.96C52.7598 24.624 53.1758 24.28 53.5758 23.928C53.9758 23.576 54.3198 23.272 54.6078 23.016C54.7038 22.92 54.7838 22.872 54.8478 22.872C54.9118 22.872 54.9438 22.912 54.9438 22.992C54.9438 23.104 54.8958 23.2 54.7998 23.28C54.3838 23.664 53.9278 24.08 53.4318 24.528C52.9358 24.96 52.4158 25.368 51.8718 25.752C51.3438 26.136 50.8238 26.448 50.3118 26.688C49.4798 27.056 48.7038 27.24 47.9838 27.24Z" fill="#4338CA"/>
<path d="M58.9966 27.024C58.5966 27.024 58.2766 26.912 58.0366 26.688C57.8126 26.464 57.7006 26.16 57.7006 25.776C57.7006 25.536 57.7566 25.264 57.8686 24.96C57.9806 24.656 58.1566 24.344 58.3966 24.024C58.7646 23.528 59.1166 23.096 59.4526 22.728C59.7886 22.344 60.0366 22 60.1966 21.696C60.3566 21.408 60.4366 21.184 60.4366 21.024C60.4366 20.784 60.2927 20.664 60.0047 20.664C59.7487 20.664 59.3807 20.808 58.9007 21.096C58.4367 21.368 57.9486 21.816 57.4366 22.44C57.1486 22.792 56.8206 23.208 56.4526 23.688C56.0846 24.152 55.7886 24.584 55.5646 24.984C55.4686 25.16 55.3726 25.344 55.2766 25.536C55.1966 25.712 55.0686 26.016 54.8926 26.448C54.8446 26.56 54.7086 26.68 54.4846 26.808C54.2766 26.936 54.1086 27 53.9806 27C53.8846 27 53.8366 26.96 53.8366 26.88C53.8366 26.816 53.8606 26.736 53.9086 26.64C53.9886 26.496 54.1646 26.04 54.4366 25.272C54.7246 24.504 55.0846 23.6 55.5166 22.56C55.2766 22.816 55.0126 23.096 54.7246 23.4C54.4366 23.688 54.1166 23.968 53.7646 24.24C53.7006 24.304 53.6286 24.336 53.5486 24.336C53.4526 24.336 53.4046 24.296 53.4046 24.216C53.4046 24.152 53.4766 24.064 53.6206 23.952C53.9886 23.632 54.3566 23.296 54.7246 22.944C55.0926 22.576 55.4926 22.12 55.9246 21.576C56.0686 21.224 56.3246 20.72 56.6926 20.064C57.0606 19.392 57.5006 18.648 58.0126 17.832C58.5246 17.016 59.0926 16.2 59.7166 15.384C60.3406 14.568 60.9807 13.84 61.6367 13.2C62.2287 12.624 62.8446 12.184 63.4846 11.88C64.1406 11.576 64.7327 11.424 65.2607 11.424C65.7247 11.424 66.1006 11.536 66.3886 11.76C66.6766 11.984 66.8206 12.344 66.8206 12.84C66.8206 13.336 66.6847 13.864 66.4127 14.424C66.1407 14.984 65.8527 15.432 65.5487 15.768C64.8607 16.536 64.0447 17.24 63.1007 17.88C62.1727 18.52 61.1966 19.064 60.1726 19.512C60.1406 19.528 60.1086 19.544 60.0766 19.56C60.0446 19.56 60.0126 19.56 59.9806 19.56C59.8686 19.56 59.8126 19.52 59.8126 19.44C59.8126 19.344 59.9006 19.264 60.0766 19.2C60.6846 18.928 61.3006 18.592 61.9246 18.192C62.5646 17.792 63.1566 17.36 63.7006 16.896C64.2446 16.432 64.7006 15.968 65.0686 15.504C65.5006 14.96 65.7806 14.52 65.9086 14.184C66.0366 13.832 66.1006 13.536 66.1006 13.296C66.1006 12.976 65.9246 12.816 65.5726 12.816C65.4126 12.816 65.1806 12.896 64.8766 13.056C64.5726 13.2 64.2127 13.44 63.7966 13.776C63.1567 14.288 62.4926 14.912 61.8046 15.648C61.1326 16.384 60.4686 17.184 59.8126 18.048C59.1726 18.912 58.5646 19.792 57.9886 20.688C57.4126 21.584 56.8927 22.456 56.4286 23.304C56.6206 23.032 56.8206 22.76 57.0286 22.488C57.2366 22.2 57.4446 21.944 57.6526 21.72C58.1326 21.192 58.6046 20.808 59.0686 20.568C59.5326 20.328 59.9487 20.208 60.3167 20.208C60.7327 20.208 61.0686 20.336 61.3246 20.592C61.5806 20.832 61.7086 21.16 61.7086 21.576C61.7086 21.8 61.6687 22.024 61.5886 22.248C61.5247 22.456 61.4446 22.648 61.3486 22.824C61.2206 23.096 61.0527 23.416 60.8447 23.784C60.6367 24.152 60.4366 24.496 60.2446 24.816C59.8766 25.408 59.6926 25.832 59.6926 26.088C59.6926 26.232 59.7566 26.304 59.8846 26.304C60.0446 26.304 60.3086 26.192 60.6766 25.968C60.9646 25.792 61.2847 25.568 61.6367 25.296C62.0047 25.008 62.3646 24.712 62.7166 24.408C63.0846 24.104 63.3966 23.84 63.6526 23.616C63.9246 23.376 64.1006 23.216 64.1806 23.136C64.2766 23.04 64.3487 22.992 64.3967 22.992C64.4447 22.992 64.4687 23.016 64.4687 23.064C64.4687 23.144 64.4127 23.256 64.3007 23.4C63.8847 23.832 63.3647 24.32 62.7407 24.864C62.1167 25.408 61.4126 25.936 60.6286 26.448C60.3246 26.656 60.0287 26.808 59.7407 26.904C59.4687 26.984 59.2206 27.024 58.9966 27.024Z" fill="#4338CA"/>
<path d="M65.7003 27.12C65.0603 27.12 64.6123 26.968 64.3563 26.664C64.1003 26.344 63.9723 25.976 63.9723 25.56C63.9723 25.16 64.0443 24.736 64.1883 24.288C64.3483 23.84 64.5243 23.416 64.7163 23.016C64.5083 23.24 64.3083 23.448 64.1163 23.64C63.9243 23.816 63.7643 23.96 63.6363 24.072C63.5723 24.12 63.5083 24.144 63.4443 24.144C63.3643 24.144 63.3243 24.104 63.3243 24.024C63.3243 23.944 63.3723 23.872 63.4683 23.808C63.8043 23.52 64.1963 23.128 64.6443 22.632C65.0923 22.136 65.5083 21.632 65.8923 21.12C66.2123 20.704 66.5963 20.184 67.0443 19.56C67.4923 18.936 67.9483 18.28 68.4123 17.592C68.8763 16.888 69.2763 16.248 69.6123 15.672C69.6603 15.576 69.7083 15.456 69.7563 15.312C69.8203 15.168 69.8523 15.04 69.8523 14.928C69.8523 14.768 69.7883 14.688 69.6603 14.688C69.6283 14.688 69.5323 14.72 69.3723 14.784C69.2283 14.848 69.0843 14.912 68.9403 14.976C68.7963 15.04 68.7083 15.072 68.6763 15.072C68.5483 15.072 68.5563 15 68.7003 14.856C68.9563 14.664 69.2763 14.48 69.6603 14.304C70.0603 14.112 70.4683 13.952 70.8843 13.824C71.3003 13.696 71.6523 13.632 71.9403 13.632C72.6123 13.632 72.9483 13.848 72.9483 14.28C72.9483 14.504 72.8443 14.8 72.6363 15.168C72.4603 15.456 72.2043 15.8 71.8683 16.2C71.5323 16.584 71.1563 17 70.7403 17.448C70.3403 17.88 69.9483 18.312 69.5643 18.744C69.1803 19.16 68.8603 19.528 68.6043 19.848C68.5403 19.928 68.3803 20.136 68.1243 20.472C67.8843 20.808 67.6043 21.216 67.2843 21.696C66.9803 22.16 66.6683 22.656 66.3483 23.184C66.0443 23.696 65.7883 24.192 65.5803 24.672C65.3883 25.136 65.2923 25.528 65.2923 25.848C65.2923 26.28 65.5003 26.496 65.9163 26.496C66.1883 26.496 66.5323 26.416 66.9483 26.256C67.3483 26.112 67.7643 25.896 68.1963 25.608C68.6443 25.304 69.0763 24.984 69.4923 24.648C69.9243 24.312 70.3003 23.992 70.6203 23.688C70.9563 23.384 71.2043 23.152 71.3643 22.992C71.4603 22.896 71.5403 22.848 71.6043 22.848C71.6683 22.848 71.7003 22.888 71.7003 22.968C71.7003 23.048 71.6603 23.128 71.5803 23.208C71.3243 23.48 70.9723 23.832 70.5243 24.264C70.0923 24.696 69.6043 25.136 69.0603 25.584C68.5323 26.016 67.9803 26.384 67.4043 26.688C66.8283 26.976 66.2603 27.12 65.7003 27.12Z" fill="#4338CA"/>
<path d="M77.723 27.936C77.515 27.856 77.307 27.712 77.099 27.504C76.907 27.296 76.811 26.936 76.811 26.424C76.811 25.992 76.883 25.544 77.027 25.08C77.171 24.6 77.355 24.128 77.579 23.664C77.163 24.192 76.707 24.712 76.211 25.224C75.731 25.736 75.243 26.16 74.747 26.496C74.267 26.816 73.819 26.976 73.403 26.976C73.051 26.976 72.755 26.88 72.515 26.688C72.291 26.496 72.179 26.2 72.179 25.8C72.179 25.512 72.235 25.2 72.347 24.864C72.459 24.528 72.659 24.152 72.947 23.736C73.235 23.32 73.547 22.912 73.883 22.512C74.235 22.096 74.539 21.744 74.795 21.456C74.971 21.248 75.059 21.08 75.059 20.952C75.059 20.792 74.971 20.712 74.795 20.712C74.603 20.712 74.331 20.84 73.979 21.096C73.611 21.368 73.219 21.704 72.803 22.104C72.387 22.488 71.995 22.864 71.627 23.232C71.259 23.584 70.947 23.864 70.691 24.072C70.643 24.12 70.595 24.144 70.547 24.144C70.467 24.144 70.427 24.096 70.427 24C70.427 23.92 70.499 23.816 70.643 23.688C71.347 23.08 71.931 22.528 72.395 22.032C72.859 21.52 73.315 21.088 73.763 20.736C74.003 20.544 74.251 20.408 74.507 20.328C74.763 20.232 75.003 20.184 75.227 20.184C75.611 20.184 75.931 20.296 76.187 20.52C76.443 20.744 76.571 21.056 76.571 21.456C76.571 21.76 76.491 22.08 76.331 22.416C76.155 22.816 75.915 23.216 75.611 23.616C75.323 24 75.043 24.376 74.771 24.744C74.563 25.048 74.411 25.296 74.315 25.488C74.219 25.68 74.171 25.824 74.171 25.92C74.171 26.048 74.235 26.112 74.363 26.112C74.491 26.112 74.675 26.04 74.915 25.896C75.155 25.752 75.403 25.568 75.659 25.344C75.835 25.184 75.987 25.04 76.115 24.912C76.259 24.768 76.363 24.664 76.427 24.6C76.795 24.216 77.163 23.808 77.531 23.376C77.899 22.928 78.219 22.52 78.491 22.152C78.699 21.88 78.859 21.672 78.971 21.528C79.099 21.384 79.235 21.232 79.379 21.072C79.651 20.768 79.939 20.608 80.243 20.592C80.419 20.592 80.619 20.632 80.843 20.712C81.083 20.776 81.315 20.912 81.539 21.12C81.379 21.344 81.139 21.656 80.819 22.056C80.515 22.44 80.179 22.872 79.811 23.352C79.459 23.816 79.115 24.296 78.779 24.792C78.459 25.288 78.195 25.752 77.987 26.184C77.779 26.616 77.675 26.992 77.675 27.312C77.675 27.536 77.739 27.712 77.867 27.84C77.931 27.904 77.931 27.936 77.867 27.936C77.803 27.952 77.755 27.952 77.723 27.936Z" fill="#4338CA"/>
<path d="M81.4426 27.12C81.2826 27.12 81.0906 27.08 80.8666 27C80.6426 26.936 80.4186 26.808 80.1946 26.616C80.3706 26.376 80.6266 26.056 80.9626 25.656C81.2826 25.24 81.6267 24.784 81.9947 24.288C82.3627 23.792 82.7066 23.296 83.0266 22.8C82.7706 23.056 82.4906 23.328 82.1866 23.616C81.8826 23.904 81.5787 24.168 81.2747 24.408C81.2107 24.472 81.1386 24.504 81.0586 24.504C80.9946 24.504 80.9626 24.472 80.9626 24.408C80.9626 24.328 81.0266 24.232 81.1546 24.12C81.6026 23.72 82.0986 23.264 82.6426 22.752C83.2026 22.224 83.6106 21.688 83.8666 21.144C83.9466 20.952 83.9866 20.776 83.9866 20.616C83.9866 20.408 83.9466 20.28 83.8666 20.232C83.8026 20.184 83.7706 20.12 83.7706 20.04C83.7706 19.896 83.8426 19.824 83.9866 19.824C84.0666 19.824 84.1306 19.84 84.1786 19.872C84.3546 19.952 84.5226 20.104 84.6826 20.328C84.8426 20.552 84.9226 20.888 84.9226 21.336C84.9226 21.592 84.8906 21.888 84.8266 22.224C84.7626 22.544 84.6506 22.912 84.4906 23.328C84.7306 23.008 84.9706 22.696 85.2106 22.392C85.4666 22.088 85.6986 21.816 85.9066 21.576C86.3386 21.08 86.7707 20.728 87.2027 20.52C87.6507 20.296 88.0506 20.184 88.4026 20.184C88.8186 20.184 89.1547 20.304 89.4107 20.544C89.6667 20.784 89.7946 21.096 89.7946 21.48C89.7946 21.784 89.7146 22.096 89.5546 22.416C89.5066 22.544 89.3947 22.744 89.2187 23.016C89.0427 23.272 88.8506 23.552 88.6426 23.856C88.4346 24.16 88.2427 24.432 88.0667 24.672C87.8587 24.928 87.7147 25.152 87.6347 25.344C87.5547 25.52 87.5146 25.664 87.5146 25.776C87.5146 25.936 87.6026 26.016 87.7786 26.016C88.0026 26.016 88.3146 25.896 88.7146 25.656C88.9546 25.512 89.2266 25.32 89.5306 25.08C89.8506 24.824 90.1627 24.568 90.4667 24.312C90.7867 24.04 91.0426 23.816 91.2346 23.64C91.2986 23.576 91.3546 23.544 91.4026 23.544C91.4666 23.544 91.4986 23.584 91.4986 23.664C91.4986 23.76 91.4586 23.848 91.3786 23.928C90.8986 24.376 90.3386 24.864 89.6986 25.392C89.0746 25.92 88.4586 26.328 87.8506 26.616C87.3546 26.856 86.8987 26.976 86.4827 26.976C86.1307 26.976 85.8506 26.888 85.6426 26.712C85.4346 26.52 85.3307 26.248 85.3307 25.896C85.3307 25.64 85.3947 25.336 85.5227 24.984C85.6827 24.552 85.9066 24.12 86.1946 23.688C86.4986 23.256 86.8106 22.848 87.1306 22.464C87.4666 22.064 87.7547 21.728 87.9947 21.456C88.2027 21.232 88.3066 21.04 88.3066 20.88C88.3066 20.736 88.2106 20.664 88.0186 20.664C87.8266 20.664 87.5386 20.776 87.1546 21C86.7866 21.208 86.3706 21.552 85.9066 22.032C85.2506 22.72 84.6746 23.464 84.1786 24.264C83.6826 25.064 83.1146 25.816 82.4746 26.52C82.1226 26.92 81.7786 27.12 81.4426 27.12Z" fill="#4338CA"/>
<path d="M97.8697 29.112C97.6137 28.888 97.4217 28.6 97.2937 28.248C97.1817 27.912 97.1257 27.528 97.1257 27.096C97.1257 26.696 97.1657 26.272 97.2457 25.824C97.3417 25.376 97.4617 24.904 97.6057 24.408C97.3017 24.792 96.9577 25.184 96.5737 25.584C96.2057 25.984 95.8537 26.328 95.5177 26.616C94.8457 27.16 94.1177 27.432 93.3337 27.432C92.7417 27.432 92.2377 27.248 91.8217 26.88C91.4057 26.496 91.1977 25.904 91.1977 25.104C91.1977 24.896 91.2137 24.696 91.2457 24.504C91.2937 24.312 91.3497 24.12 91.4137 23.928C91.3177 24.008 91.2217 24.088 91.1257 24.168C91.0457 24.248 90.9657 24.32 90.8857 24.384C90.8217 24.432 90.7577 24.456 90.6937 24.456C90.6137 24.456 90.5737 24.416 90.5737 24.336C90.5737 24.24 90.6537 24.128 90.8137 24C91.0217 23.824 91.2537 23.584 91.5097 23.28C91.7817 22.976 92.0777 22.648 92.3977 22.296C92.9577 21.672 93.6377 21.168 94.4377 20.784C95.2537 20.4 96.0537 20.208 96.8377 20.208C97.5097 20.208 97.9977 20.328 98.3017 20.568C98.6217 20.808 98.7817 21.096 98.7817 21.432C99.1817 20.584 99.5977 19.776 100.03 19.008C100.478 18.224 100.894 17.536 101.278 16.944C101.678 16.352 102.006 15.912 102.262 15.624C102.438 15.416 102.654 15.264 102.91 15.168C103.182 15.072 103.454 15.024 103.726 15.024C103.998 15.024 104.262 15.064 104.518 15.144C104.774 15.224 104.998 15.352 105.19 15.528C105.03 15.624 104.774 15.856 104.422 16.224C104.086 16.576 103.694 17.016 103.246 17.544C102.814 18.072 102.358 18.64 101.878 19.248C101.414 19.856 100.974 20.464 100.558 21.072C100.062 21.792 99.5897 22.568 99.1417 23.4C98.7097 24.232 98.3577 25.04 98.0857 25.824C97.8137 26.592 97.6777 27.272 97.6777 27.864C97.6777 28.344 97.7817 28.712 97.9897 28.968C98.0377 29.032 98.0377 29.072 97.9897 29.088C97.9417 29.12 97.9017 29.128 97.8697 29.112ZM94.0777 26.616C94.3657 26.616 94.7497 26.472 95.2297 26.184C95.7097 25.88 96.3017 25.368 97.0057 24.648C97.2297 24.424 97.4057 24.232 97.5337 24.072C97.6777 23.896 97.7977 23.728 97.8937 23.568C97.9737 23.344 98.0537 23.128 98.1337 22.92C98.2137 22.712 98.3017 22.504 98.3977 22.296C98.3017 22.36 98.2297 22.392 98.1817 22.392C98.0537 22.392 97.9897 22.32 97.9897 22.176C97.9897 22.112 98.0137 22.032 98.0617 21.936C98.2217 21.664 98.3017 21.424 98.3017 21.216C98.3017 20.88 98.1097 20.712 97.7257 20.712C97.5177 20.712 97.2377 20.776 96.8857 20.904C96.4857 21.064 96.0697 21.312 95.6377 21.648C95.2217 21.968 94.8297 22.352 94.4617 22.8C94.1097 23.232 93.8217 23.68 93.5977 24.144C93.3897 24.608 93.2857 25.048 93.2857 25.464C93.2857 25.768 93.3417 26.04 93.4537 26.28C93.5817 26.504 93.7897 26.616 94.0777 26.616Z" fill="#4338CA"/>
<path d="M106.204 19.656C105.98 19.656 105.812 19.584 105.7 19.44C105.588 19.296 105.532 19.144 105.532 18.984C105.532 18.664 105.684 18.352 105.988 18.048C106.292 17.728 106.612 17.568 106.948 17.568C107.172 17.568 107.34 17.64 107.452 17.784C107.564 17.928 107.62 18.08 107.62 18.24C107.62 18.576 107.468 18.896 107.164 19.2C106.876 19.504 106.556 19.656 106.204 19.656ZM102.532 27.024C101.876 27.024 101.428 26.888 101.188 26.616C100.964 26.328 100.852 26.008 100.852 25.656C100.852 25.368 100.9 25.096 100.996 24.84C101.092 24.568 101.172 24.376 101.236 24.264C101.332 24.104 101.46 23.92 101.62 23.712C101.796 23.504 101.988 23.28 102.196 23.04C101.876 23.312 101.572 23.576 101.284 23.832C101.012 24.088 100.788 24.28 100.612 24.408C100.564 24.456 100.516 24.48 100.468 24.48C100.404 24.48 100.372 24.44 100.372 24.36C100.372 24.232 100.46 24.104 100.636 23.976C101.052 23.624 101.452 23.24 101.836 22.824C102.236 22.408 102.612 22.024 102.964 21.672C103.316 21.304 103.628 21.048 103.9 20.904C104.188 20.744 104.42 20.64 104.596 20.592C104.772 20.544 104.916 20.52 105.028 20.52C105.204 20.52 105.332 20.552 105.412 20.616C105.492 20.664 105.508 20.72 105.46 20.784C105.188 21.056 104.916 21.408 104.644 21.84C104.388 22.256 104.148 22.696 103.924 23.16C103.7 23.624 103.516 24.064 103.372 24.48C103.244 24.896 103.18 25.248 103.18 25.536C103.18 25.936 103.34 26.136 103.66 26.136C103.964 26.136 104.356 26 104.836 25.728C105.332 25.44 105.844 25.08 106.372 24.648C106.916 24.216 107.42 23.792 107.884 23.376C107.948 23.312 108.004 23.28 108.052 23.28C108.132 23.28 108.172 23.32 108.172 23.4C108.188 23.48 108.172 23.536 108.124 23.568C107.596 24.064 106.996 24.584 106.324 25.128C105.668 25.656 105.004 26.104 104.332 26.472C103.676 26.84 103.076 27.024 102.532 27.024Z" fill="#4338CA"/>
<path d="M108.781 27.024C108.285 27.024 107.901 26.872 107.629 26.568C107.357 26.248 107.221 25.84 107.221 25.344C107.221 24.88 107.341 24.368 107.581 23.808C107.837 23.248 108.237 22.68 108.781 22.104C109.341 21.496 110.037 21.008 110.869 20.64C111.701 20.256 112.493 20.064 113.245 20.064C113.853 20.064 114.373 20.2 114.805 20.472C115.237 20.728 115.525 21.056 115.669 21.456C115.845 21.456 116.061 21.504 116.317 21.6C116.589 21.696 116.725 21.872 116.725 22.128C116.725 22.304 116.637 22.504 116.461 22.728C116.349 22.888 116.149 23.128 115.861 23.448C115.589 23.768 115.333 24.112 115.093 24.48C114.901 24.768 114.749 25.04 114.637 25.296C114.525 25.536 114.469 25.744 114.469 25.92C114.469 26.16 114.589 26.28 114.829 26.28C115.101 26.28 115.509 26.128 116.053 25.824C116.645 25.488 117.213 25.104 117.757 24.672C118.301 24.24 118.725 23.896 119.029 23.64C119.109 23.576 119.165 23.544 119.197 23.544C119.261 23.544 119.293 23.584 119.293 23.664C119.293 23.76 119.253 23.848 119.173 23.928C119.029 24.056 118.749 24.296 118.333 24.648C117.917 25 117.437 25.368 116.893 25.752C116.365 26.136 115.845 26.448 115.333 26.688C115.077 26.8 114.837 26.888 114.613 26.952C114.405 27 114.213 27.024 114.037 27.024C113.605 27.024 113.277 26.904 113.053 26.664C112.829 26.408 112.717 26.08 112.717 25.68C112.717 25.52 112.741 25.352 112.789 25.176C112.837 25 112.893 24.824 112.957 24.648L113.125 24.24C112.709 24.752 112.293 25.184 111.877 25.536C111.461 25.872 111.045 26.168 110.629 26.424C110.277 26.632 109.941 26.784 109.621 26.88C109.317 26.976 109.037 27.024 108.781 27.024ZM109.525 26.4C109.813 26.4 110.229 26.232 110.773 25.896C111.317 25.544 111.949 25.008 112.669 24.288C112.765 24.192 112.941 24.024 113.197 23.784C113.469 23.528 113.757 23.248 114.061 22.944C114.365 22.624 114.621 22.312 114.829 22.008C115.053 21.688 115.165 21.424 115.165 21.216C115.165 20.912 114.901 20.76 114.373 20.76C113.909 20.76 113.349 20.944 112.693 21.312C112.053 21.664 111.437 22.192 110.845 22.896C110.237 23.616 109.789 24.24 109.501 24.768C109.229 25.28 109.093 25.672 109.093 25.944C109.093 26.248 109.237 26.4 109.525 26.4Z" fill="#4338CA"/>
<path d="M120.027 27C119.819 27 119.659 26.944 119.547 26.832C119.371 26.688 119.283 26.488 119.283 26.232C119.283 25.864 119.427 25.528 119.715 25.224C120.051 24.84 120.435 24.648 120.867 24.648C121.043 24.648 121.203 24.696 121.347 24.792C121.523 24.936 121.611 25.136 121.611 25.392C121.611 25.744 121.467 26.08 121.179 26.4C120.827 26.8 120.443 27 120.027 27Z" fill="#4338CA"/>
</g>
<defs>
<clipPath id="clip0_333_139">
<rect width="124" height="40" fill="white"/>
</clipPath>
</defs>
</svg>
